<svg xmlns="http://www.w3.org/2000/svg" width="64" height="64" viewBox="0 0 64 64"><rect x="4" y="6" width="58" height="56" rx="8" fill="#0d1014" opacity="0.45"/><rect x="3" y="3" width="56" height="56" rx="8" fill="#2a313b" stroke="#0d1014" stroke-width="3" stroke-linejoin="round" stroke-linecap="round"/><rect x="7" y="7" width="48" height="48" rx="5" fill="#1b2027" stroke="#6bd46b" stroke-width="2" opacity="0.9"/><circle cx="10" cy="10" r="1.6" fill="#3a4350"/><circle cx="52" cy="10" r="1.6" fill="#3a4350"/><circle cx="10" cy="52" r="1.6" fill="#3a4350"/><circle cx="52" cy="52" r="1.6" fill="#3a4350"/><rect x="10" y="38" width="14" height="12" rx="2" fill="#3e7b3e" stroke="#0d1014" stroke-width="3" stroke-linejoin="round" stroke-linecap="round"/><rect x="12" y="40" width="8" height="6" rx="1" fill="#60be60"/><path d="M13 42 V42 Q13 41 15 41 H16" fill="none" stroke="#a7dba7" stroke-width="2"/><rect x="24" y="38" width="14" height="12" rx="2" fill="#3e7b3e" stroke="#0d1014" stroke-width="3" stroke-linejoin="round" stroke-linecap="round"/><rect x="26" y="40" width="8" height="6" rx="1" fill="#60be60"/><path d="M27 42 V42 Q27 41 29 41 H30" fill="none" stroke="#a7dba7" stroke-width="2"/><rect x="38" y="38" width="14" height="12" rx="2" fill="#3e7b3e" stroke="#0d1014" stroke-width="3" stroke-linejoin="round" stroke-linecap="round"/><rect x="40" y="40" width="8" height="6" rx="1" fill="#60be60"/><path d="M41 42 V42 Q41 41 43 41 H44" fill="none" stroke="#a7dba7" stroke-width="2"/><rect x="17" y="26" width="14" height="12" rx="2" fill="#3e7b3e" stroke="#0d1014" stroke-width="3" stroke-linejoin="round" stroke-linecap="round"/><rect x="19" y="28" width="8" height="6" rx="1" fill="#60be60"/><path d="M20 30 V30 Q20 29 22 29 H23" fill="none" stroke="#a7dba7" stroke-width="2"/><rect x="31" y="26" width="14" height="12" rx="2" fill="#3e7b3e" stroke="#0d1014" stroke-width="3" stroke-linejoin="round" stroke-linecap="round"/><rect x="33" y="28" width="8" height="6" rx="1" fill="#60be60"/><path d="M34 30 V30 Q34 29 36 29 H37" fill="none" stroke="#a7dba7" stroke-width="2"/><rect x="24" y="14" width="14" height="12" rx="2" fill="#3e7b3e" stroke="#0d1014" stroke-width="3" stroke-linejoin="round" stroke-linecap="round"/><rect x="26" y="16" width="8" height="6" rx="1" fill="#60be60"/><path d="M27 18 V18 Q27 17 29 17 H30" fill="none" stroke="#a7dba7" stroke-width="2"/><path d="M8 52 H54" stroke="#0d1014" stroke-width="3"/></svg>
