<svg xmlns="http://www.w3.org/2000/svg" width="64" height="64" viewBox="0 0 64 64"><g transform="rotate(-24 8 20)"><rect x="6" y="8" width="52" height="13" rx="3" fill="#592a4f" stroke="#0d1014" stroke-width="3" stroke-linejoin="round" stroke-linecap="round"/><rect x="8" y="10" width="46" height="7" rx="1" fill="#8a427b"/><path d="M9 13 V12 Q9 11 11 11 H50" fill="none" stroke="#be97b6" stroke-width="2"/><rect x="27" y="8" width="10" height="13" fill="#ffd447" stroke="#0d1014" stroke-width="2"/></g><ellipse cx="33" cy="56" rx="26" ry="5" fill="#0d1014" opacity="0.4"/><rect x="8" y="26" width="48" height="28" rx="4" fill="#4f1a44" stroke="#0d1014" stroke-width="3" stroke-linejoin="round" stroke-linecap="round"/><rect x="10" y="28" width="42" height="22" rx="2" fill="#7b2969"/><path d="M11 46 V30 Q11 29 13 29 H48" fill="none" stroke="#b689ac" stroke-width="2"/><rect x="8" y="34" width="48" height="5" fill="#ffd447" stroke="#0d1014" stroke-width="2"/><rect x="27" y="28" width="10" height="24" fill="#ffd447" stroke="#0d1014" stroke-width="2"/><circle cx="32" cy="42" r="5" fill="#1b2027" stroke="#0d1014" stroke-width="2.5" stroke-linejoin="round" stroke-linecap="round"/><circle cx="32" cy="42" r="2" fill="#ffd447"/><path d="M12 28 L4 4 M32 26 V0 M52 28 L60 4" stroke="#ffd447" stroke-width="5" opacity="0.5" stroke-linecap="round"/><ellipse cx="32" cy="27" rx="22" ry="5" fill="#ffd447"/><ellipse cx="32" cy="27" rx="13" ry="2.5" fill="#ffffff"/></svg>
