<svg xmlns="http://www.w3.org/2000/svg" width="128" height="128" viewBox="0 0 128 128"><rect x="6" y="8" width="120" height="120" rx="9" fill="#0d1014" opacity="0.45"/><rect x="4" y="4" width="120" height="120" rx="9" fill="#2a313b" stroke="#0d1014" stroke-width="3" stroke-linejoin="round" stroke-linecap="round"/><rect x="9" y="9" width="110" height="110" rx="6" fill="#1b2027" stroke="#e8434f" stroke-width="2.5"/><rect x="12" y="12" width="5" height="5" fill="#3a4350"/><rect x="111" y="12" width="5" height="5" fill="#3a4350"/><rect x="12" y="111" width="5" height="5" fill="#3a4350"/><rect x="111" y="111" width="5" height="5" fill="#3a4350"/><rect x="14" y="36" width="76" height="80" rx="8" fill="#382d2a" stroke="#0d1014" stroke-width="3" stroke-linejoin="round" stroke-linecap="round"/><rect x="16.5" y="38.5" width="69" height="73" rx="6" fill="#5b4a44"/><path d="M18 107 V41 Q18 40 20 40 H81" fill="none" stroke="#a49b98" stroke-width="2"/><rect x="26" y="70" width="52" height="30" rx="4" fill="#0d1014"/><rect x="31" y="75" width="42" height="20" rx="3" fill="#ff7a2e"/><rect x="94" y="10" width="22" height="106" rx="4" fill="#232931" stroke="#0d1014" stroke-width="3" stroke-linejoin="round" stroke-linecap="round"/><rect x="96.5" y="12.5" width="15" height="99" rx="2" fill="#3a4350"/><path d="M98 107 V15 Q98 14 100 14 H107" fill="none" stroke="#92979e" stroke-width="2"/><ellipse cx="105" cy="12" rx="9" ry="3.5" fill="#0d1014"/><path d="M30 52 L42 46 L36 58 L50 52" fill="none" stroke="#ffd447" stroke-width="4" stroke-linecap="round" stroke-linejoin="round"/><circle cx="68" cy="52" r="7" fill="#ffd447" stroke="#0d1014" stroke-width="2" stroke-linejoin="round" stroke-linecap="round"/></svg>
