<svg xmlns="http://www.w3.org/2000/svg" width="192" height="192" viewBox="0 0 192 192"><rect x="8" y="10" width="180" height="180" rx="9" fill="#0d1014" opacity="0.45"/><rect x="6" y="6" width="180" height="180" rx="9" fill="#2a313b" stroke="#0d1014" stroke-width="3" stroke-linejoin="round" stroke-linecap="round"/><rect x="11" y="11" width="170" height="170" rx="6" fill="#1b2027" stroke="#8f7cf2" stroke-width="2.5"/><rect x="14" y="14" width="5" height="5" fill="#3a4350"/><rect x="173" y="14" width="5" height="5" fill="#3a4350"/><rect x="14" y="173" width="5" height="5" fill="#3a4350"/><rect x="173" y="173" width="5" height="5" fill="#3a4350"/><rect x="24" y="76" width="144" height="92" rx="10" fill="#252339" stroke="#0d1014" stroke-width="3" stroke-linejoin="round" stroke-linecap="round"/><rect x="26.5" y="78.5" width="137" height="85" rx="8" fill="#3d3a5c"/><path d="M28 159 V81 Q28 80 30 80 H159" fill="none" stroke="#9492a5" stroke-width="2"/><path d="M36 80 A60 60 0 0 1 156 80Z" fill="#5c509d" stroke="#0d1014" stroke-width="3" stroke-linejoin="round" stroke-linecap="round"/><path d="M48 80 A48 48 0 0 1 144 80" fill="none" stroke="#8f7cf2" stroke-width="3"/><rect x="88" y="26" width="16" height="40" rx="3" fill="#3a4350" stroke="#0d1014" stroke-width="2" stroke-linejoin="round" stroke-linecap="round" transform="rotate(-30 96 46)"/><rect x="44" y="100" width="20" height="40" rx="3" fill="#0d1014" stroke="#8f7cf2" stroke-width="2"/><rect x="86" y="100" width="20" height="40" rx="3" fill="#0d1014" stroke="#8f7cf2" stroke-width="2"/><rect x="128" y="100" width="20" height="40" rx="3" fill="#0d1014" stroke="#8f7cf2" stroke-width="2"/><circle cx="54" cy="118" r="5" fill="#3fd8e8"/><circle cx="96" cy="112" r="5" fill="#ffd447"/><circle cx="138" cy="124" r="5" fill="#6bd46b"/></svg>
