<svg xmlns="http://www.w3.org/2000/svg" width="64" height="64" viewBox="0 0 64 64"><rect x="4" y="6" width="58" height="56" rx="8" fill="#0d1014" opacity="0.45"/><rect x="3" y="3" width="56" height="56" rx="8" fill="#2a313b" stroke="#0d1014" stroke-width="3" stroke-linejoin="round" stroke-linecap="round"/><rect x="7" y="7" width="48" height="48" rx="5" fill="#1b2027" stroke="#e8434f" stroke-width="2" opacity="0.9"/><circle cx="10" cy="10" r="1.6" fill="#3a4350"/><circle cx="52" cy="10" r="1.6" fill="#3a4350"/><circle cx="10" cy="52" r="1.6" fill="#3a4350"/><circle cx="52" cy="52" r="1.6" fill="#3a4350"/><rect x="12" y="24" width="38" height="27" rx="3" fill="#6b6d6f" stroke="#0d1014" stroke-width="3" stroke-linejoin="round" stroke-linecap="round"/><rect x="14" y="26" width="32" height="21" rx="1" fill="#a6a9ab"/><path d="M15 43 V28 Q15 27 17 27 H42" fill="none" stroke="#cecfd0" stroke-width="2"/><path d="M9 27 L31 10 L53 27Z" fill="#3fd8e8" stroke="#0d1014" stroke-width="3" stroke-linejoin="round" stroke-linecap="round"/><path d="M13 26 L31 12" stroke="#95e9f2" stroke-width="2"/><rect x="25" y="36" width="12" height="15" rx="1" fill="#0d1014"/><path d="M25 21 h12 M27 19 v4 M35 19 v4" stroke="#0d1014" stroke-width="2.5"/><circle cx="31" cy="21" r="2.5" fill="#eef2f5"/><rect x="40" y="38" width="8" height="8" rx="1" fill="#3fd8e8" stroke="#0d1014" stroke-width="2.5" stroke-linejoin="round" stroke-linecap="round"/></svg>
